<svg width="180" height="51" viewBox="0 0 180 51" fill="none" xmlns="http://www.w3.org/2000/svg">
<g id="Group 1">
<g id="W" filter="url(#filter0_i_1831_350)">
<path d="M14.5335 50.7928L0 0H11.7309L20.1385 35.292H20.5602L29.8358 0H39.8803L49.1311 35.3664H49.5775L57.9851 0H69.716L55.1826 50.7928H44.7165L35.044 17.584H34.6472L24.9996 50.7928H14.5335Z" fill="#36BF7F"/>
</g>
<g id="egather">
<path d="M72.5795 27.0289C72.5911 27.8902 72.7774 28.6759 73.1382 29.386C73.499 30.096 74.0345 30.6605 74.7445 31.0796C75.4662 31.4986 76.3508 31.7081 77.3984 31.7081C78.2831 31.7081 79.0339 31.5801 79.6508 31.324C80.2793 31.0563 80.7915 30.742 81.1873 30.3812C81.583 30.0087 81.8682 29.677 82.0428 29.386L83.5269 31.2193C83.1428 31.778 82.6714 32.2669 82.1126 32.6859C81.5656 33.1049 80.8963 33.425 80.1047 33.6462C79.3132 33.879 78.3471 33.9954 77.2064 33.9954C75.6699 33.9954 74.3371 33.6695 73.208 33.0176C72.0906 32.3542 71.2292 31.4404 70.624 30.2764C70.0187 29.1008 69.716 27.7564 69.716 26.2432C69.716 24.8464 70.0012 23.5892 70.5716 22.4718C71.1419 21.3427 71.9684 20.4523 73.0509 19.8004C74.1451 19.1486 75.4604 18.8227 76.9969 18.8227C78.4053 18.8227 79.6275 19.1195 80.6635 19.7131C81.7111 20.2951 82.52 21.1216 83.0904 22.1924C83.6724 23.2633 83.9634 24.5437 83.9634 26.0336C83.9634 26.1268 83.9576 26.2955 83.9459 26.54C83.9343 26.7728 83.9227 26.9357 83.911 27.0289H72.5795ZM81.065 24.7416C81.0534 24.2644 80.9137 23.7406 80.646 23.1702C80.3899 22.5998 79.9709 22.111 79.3889 21.7036C78.8069 21.2962 78.0212 21.0925 77.0318 21.0925C76.0075 21.0925 75.181 21.2903 74.5525 21.6861C73.9355 22.0819 73.4816 22.5649 73.1906 23.1353C72.8996 23.694 72.7308 24.2294 72.6842 24.7416H81.065Z" fill="#36BF7F"/>
<path d="M93.9876 41.2413C92.8586 41.2413 91.8342 41.1249 90.9147 40.8921C90.0068 40.6593 89.2094 40.3276 88.5226 39.8969C87.8475 39.4779 87.3063 38.9832 86.8989 38.4128L88.8893 36.5096C89.1105 36.8123 89.4073 37.1324 89.7798 37.4699C90.1639 37.8192 90.6819 38.116 91.3337 38.3604C91.9856 38.6049 92.8353 38.7271 93.8829 38.7271C94.9072 38.7271 95.7744 38.5059 96.4844 38.0636C97.1945 37.6329 97.7357 37.0451 98.1082 36.3001C98.4807 35.5552 98.6669 34.7171 98.6669 33.7859V33.3145H101.635V33.9779C101.635 35.561 101.292 36.888 100.605 37.9588C99.9299 39.0414 99.0161 39.8562 97.8638 40.4032C96.7114 40.962 95.4194 41.2413 93.9876 41.2413ZM98.6669 33.5764V30.7828C98.5738 31.0738 98.3003 31.4753 97.8463 31.9875C97.404 32.4997 96.7929 32.9653 96.013 33.3843C95.2448 33.7917 94.3368 33.9954 93.2892 33.9954C91.9623 33.9954 90.7575 33.6811 89.675 33.0526C88.6041 32.424 87.7486 31.5452 87.1084 30.4161C86.4798 29.2754 86.1655 27.9426 86.1655 26.4178C86.1655 24.8929 86.4798 23.566 87.1084 22.4369C87.7486 21.2962 88.6041 20.4115 89.675 19.783C90.7575 19.1428 91.9623 18.8227 93.2892 18.8227C94.3252 18.8227 95.2215 19.0089 95.9781 19.3814C96.7463 19.7539 97.3574 20.1845 97.8114 20.6734C98.277 21.1623 98.5505 21.5813 98.632 21.9305V19.2417H101.635V33.5764H98.6669ZM89.1687 26.4178C89.1687 27.4537 89.3957 28.35 89.8496 29.1066C90.3036 29.8632 90.8914 30.451 91.6131 30.8701C92.3464 31.2775 93.1263 31.4812 93.9527 31.4812C94.8374 31.4812 95.6289 31.2716 96.3273 30.8526C97.0257 30.4336 97.5786 29.8457 97.986 29.0891C98.3934 28.3209 98.5971 27.4304 98.5971 26.4178C98.5971 25.4051 98.3934 24.5204 97.986 23.7638C97.5786 22.9956 97.0257 22.402 96.3273 21.9829C95.6289 21.5522 94.8374 21.3369 93.9527 21.3369C93.1263 21.3369 92.3464 21.5464 91.6131 21.9655C90.8914 22.3845 90.3036 22.9723 89.8496 23.7289C89.3957 24.4855 89.1687 25.3818 89.1687 26.4178Z" fill="#36BF7F"/>
<path d="M117.18 33.5764V30.7828C117.087 31.0738 116.813 31.4753 116.359 31.9875C115.917 32.4997 115.306 32.9653 114.526 33.3843C113.758 33.7917 112.85 33.9954 111.802 33.9954C110.475 33.9954 109.271 33.6811 108.188 33.0526C107.117 32.424 106.262 31.5452 105.621 30.4161C104.993 29.2754 104.679 27.9426 104.679 26.4178C104.679 24.8929 104.993 23.566 105.621 22.4369C106.262 21.2962 107.117 20.4115 108.188 19.783C109.271 19.1428 110.475 18.8227 111.802 18.8227C112.838 18.8227 113.735 19.0089 114.491 19.3814C115.259 19.7539 115.87 20.1845 116.324 20.6734C116.79 21.1623 117.064 21.5813 117.145 21.9305V19.2417H120.148V33.5764H117.18ZM107.682 26.4178C107.682 27.4537 107.909 28.35 108.363 29.1066C108.817 29.8632 109.404 30.451 110.126 30.8701C110.859 31.2775 111.639 31.4812 112.466 31.4812C113.35 31.4812 114.142 31.2716 114.84 30.8526C115.539 30.4336 116.092 29.8457 116.499 29.0891C116.906 28.3209 117.11 27.4304 117.11 26.4178C117.11 25.4051 116.906 24.5204 116.499 23.7638C116.092 22.9956 115.539 22.402 114.84 21.9829C114.142 21.5522 113.35 21.3369 112.466 21.3369C111.639 21.3369 110.859 21.5464 110.126 21.9655C109.404 22.3845 108.817 22.9723 108.363 23.7289C107.909 24.4855 107.682 25.3818 107.682 26.4178Z" fill="#36BF7F"/>
<path d="M122.811 19.2417H125.622V13.3577H128.642V19.2417H132.327V21.8432H128.642V28.932C128.642 29.7701 128.788 30.387 129.079 30.7828C129.382 31.1785 129.783 31.3764 130.284 31.3764C130.726 31.3764 131.069 31.2949 131.314 31.132C131.558 30.969 131.704 30.8584 131.75 30.8002L132.955 33.0351C132.885 33.0933 132.699 33.2039 132.396 33.3668C132.094 33.5298 131.704 33.6753 131.227 33.8033C130.749 33.9314 130.191 33.9954 129.55 33.9954C128.433 33.9954 127.496 33.6578 126.739 32.9827C125.994 32.296 125.622 31.2134 125.622 29.7352V21.8432H122.811V19.2417Z" fill="#36BF7F"/>
<path d="M143.538 18.8227C144.481 18.8227 145.394 19.0205 146.279 19.4163C147.175 19.8121 147.909 20.4406 148.479 21.302C149.061 22.1517 149.352 23.2633 149.352 24.6368V33.5764H146.279V25.2305C146.279 23.8104 145.953 22.7803 145.301 22.1401C144.661 21.4882 143.817 21.1623 142.77 21.1623C142.071 21.1623 141.402 21.3602 140.762 21.7559C140.121 22.1401 139.592 22.6755 139.173 23.3623C138.765 24.0374 138.562 24.8056 138.562 25.667V33.5764H135.489V9.55139H138.562V21.7909C138.666 21.3951 138.946 20.9644 139.4 20.4988C139.865 20.0332 140.459 19.6375 141.181 19.3115C141.902 18.9856 142.688 18.8227 143.538 18.8227Z" fill="#36BF7F"/>
<path d="M155.187 27.0289C155.199 27.8902 155.385 28.6759 155.746 29.386C156.107 30.096 156.642 30.6605 157.352 31.0796C158.074 31.4986 158.959 31.7081 160.006 31.7081C160.891 31.7081 161.642 31.5801 162.258 31.324C162.887 31.0563 163.399 30.742 163.795 30.3812C164.191 30.0087 164.476 29.677 164.65 29.386L166.135 31.2193C165.75 31.778 165.279 32.2669 164.72 32.6859C164.173 33.1049 163.504 33.425 162.712 33.6462C161.921 33.879 160.955 33.9954 159.814 33.9954C158.278 33.9954 156.945 33.6695 155.816 33.0176C154.698 32.3542 153.837 31.4404 153.232 30.2764C152.626 29.1008 152.324 27.7564 152.324 26.2432C152.324 24.8464 152.609 23.5892 153.179 22.4718C153.75 21.3427 154.576 20.4523 155.659 19.8004C156.753 19.1486 158.068 18.8227 159.605 18.8227C161.013 18.8227 162.235 19.1195 163.271 19.7131C164.319 20.2951 165.128 21.1216 165.698 22.1924C166.28 23.2633 166.571 24.5437 166.571 26.0336C166.571 26.1268 166.565 26.2955 166.554 26.54C166.542 26.7728 166.53 26.9357 166.519 27.0289H155.187ZM163.673 24.7416C163.661 24.2644 163.521 23.7406 163.254 23.1702C162.998 22.5998 162.579 22.111 161.997 21.7036C161.415 21.2962 160.629 21.0925 159.639 21.0925C158.615 21.0925 157.789 21.2903 157.16 21.6861C156.543 22.0819 156.089 22.5649 155.798 23.1353C155.507 23.694 155.338 24.2294 155.292 24.7416H163.673Z" fill="#36BF7F"/>
<path d="M172.737 33.5764H169.716V19.2417H172.737V21.721H172.649C172.708 21.4184 172.923 21.0401 173.295 20.5861C173.668 20.1322 174.18 19.7248 174.832 19.3639C175.484 19.0031 176.264 18.8227 177.171 18.8227C177.835 18.8227 178.417 18.9158 178.918 19.102C179.43 19.2766 179.79 19.4512 180 19.6258L178.76 22.1401C178.597 21.9771 178.312 21.8141 177.905 21.6512C177.497 21.4766 176.991 21.3893 176.386 21.3893C175.618 21.3893 174.96 21.6279 174.413 22.1051C173.866 22.5824 173.447 23.1586 173.156 23.8337C172.876 24.4972 172.737 25.1141 172.737 25.6844V33.5764Z" fill="#36BF7F"/>
</g>
</g>
<defs>
<filter id="filter0_i_1831_350" x="0" y="0" width="69.716" height="53.9512" filterUnits="userSpaceOnUse" color-interpolation-filters="sRGB">
<feFlood flood-opacity="0" result="BackgroundImageFix"/>
<feBlend mode="normal" in="SourceGraphic" in2="BackgroundImageFix" result="shape"/>
<feColorMatrix in="SourceAlpha" type="matrix" values="0 0 0 0 0 0 0 0 0 0 0 0 0 0 0 0 0 0 127 0" result="hardAlpha"/>
<feOffset dy="3.1584"/>
<feGaussianBlur stdDeviation="1.5792"/>
<feComposite in2="hardAlpha" operator="arithmetic" k2="-1" k3="1"/>
<feColorMatrix type="matrix" values="0 0 0 0 0 0 0 0 0 0 0 0 0 0 0 0 0 0 0.25 0"/>
<feBlend mode="normal" in2="shape" result="effect1_innerShadow_1831_350"/>
</filter>
</defs>
</svg>
