<svg width="20" height="20" viewBox="0 0 20 20" fill="none" xmlns="http://www.w3.org/2000/svg">
<g id="&#236;&#157;&#184;&#236;&#166;&#157; &#237;&#145;&#156;&#236;&#139;&#156;">
<path id="Star 2" d="M8.48118 1.87889C9.26286 0.911899 10.7371 0.911898 11.5188 1.87889C12.0045 2.47969 12.7987 2.73774 13.5447 2.53714C14.7455 2.21429 15.9382 3.08085 16.0022 4.32262C16.042 5.09415 16.5328 5.76972 17.2543 6.04596C18.4155 6.49056 18.8711 7.89269 18.193 8.93492C17.7717 9.58247 17.7717 10.4175 18.193 11.0651C18.8711 12.1073 18.4155 13.5094 17.2543 13.954C16.5328 14.2303 16.042 14.9059 16.0022 15.6774C15.9382 16.9191 14.7455 17.7857 13.5447 17.4629C12.7987 17.2623 12.0045 17.5203 11.5188 18.1211C10.7371 19.0881 9.26286 19.0881 8.48118 18.1211C7.99552 17.5203 7.20133 17.2623 6.45528 17.4629C5.25451 17.7857 4.06179 16.9191 3.99778 15.6774C3.95801 14.9059 3.46718 14.2303 2.7457 13.954C1.58449 13.5094 1.12891 12.1073 1.80702 11.0651C2.22834 10.4175 2.22834 9.58247 1.80702 8.93492C1.12891 7.89269 1.58449 6.49056 2.7457 6.04596C3.46718 5.76972 3.95801 5.09415 3.99778 4.32262C4.06179 3.08085 5.25451 2.21429 6.45528 2.53714C7.20133 2.73774 7.99552 2.47969 8.48118 1.87889Z" fill="#36BF7F"/>
<path id="check" d="M6.25 9.75L8.875 12.375L13.75 7.5" stroke="white" stroke-linecap="round" stroke-linejoin="round"/>
</g>
</svg>
