<svg width="30" height="30" viewBox="0 0 30 30" fill="none" xmlns="http://www.w3.org/2000/svg">
<g id="visible icon">
<path id="Vector" d="M26.7187 20.5078C26.6116 20.5689 26.4935 20.6082 26.3712 20.6236C26.2489 20.639 26.1248 20.6301 26.0059 20.5974C25.8871 20.5648 25.7758 20.509 25.6785 20.4333C25.5813 20.3576 25.4999 20.2634 25.439 20.1562L23.2124 16.2656C21.918 17.1409 20.49 17.8002 18.9843 18.218L19.6722 22.3453C19.6925 22.4668 19.6887 22.5911 19.6609 22.7111C19.6331 22.8312 19.5819 22.9445 19.5103 23.0448C19.4387 23.145 19.3481 23.2301 19.2435 23.2953C19.139 23.3605 19.0226 23.4044 18.9011 23.4246C18.8511 23.4328 18.8006 23.4371 18.7499 23.4375C18.5282 23.4372 18.3137 23.3582 18.1446 23.2147C17.9755 23.0711 17.8628 22.8723 17.8265 22.6535L17.1503 18.6012C15.7244 18.7996 14.2778 18.7996 12.8519 18.6012L12.1757 22.6535C12.1393 22.8727 12.0263 23.0718 11.8567 23.2154C11.6872 23.359 11.4721 23.4377 11.2499 23.4375C11.1981 23.4373 11.1464 23.433 11.0953 23.4246C10.9737 23.4044 10.8574 23.3605 10.7528 23.2953C10.6483 23.2301 10.5576 23.145 10.486 23.0448C10.4144 22.9445 10.3633 22.8312 10.3355 22.7111C10.3077 22.5911 10.3039 22.4668 10.3242 22.3453L11.0156 18.218C9.51044 17.7989 8.0833 17.1384 6.78978 16.2621L4.57025 20.1562C4.5087 20.2635 4.42661 20.3576 4.32869 20.4331C4.23078 20.5087 4.11894 20.5642 3.99956 20.5965C3.88019 20.6288 3.75562 20.6373 3.63296 20.6215C3.51031 20.6057 3.39197 20.5658 3.28471 20.5043C3.17744 20.4427 3.08335 20.3606 3.00781 20.2627C2.93227 20.1648 2.87676 20.053 2.84444 19.9336C2.81212 19.8142 2.80363 19.6897 2.81945 19.567C2.83527 19.4443 2.8751 19.326 2.93666 19.2187L5.28041 15.1172C4.45717 14.4059 3.70016 13.6215 3.01869 12.7734C2.9337 12.6785 2.86895 12.5673 2.82837 12.4466C2.7878 12.3258 2.77226 12.1981 2.78269 12.0711C2.79313 11.9442 2.82934 11.8207 2.88909 11.7082C2.94885 11.5957 3.0309 11.4965 3.13025 11.4168C3.22959 11.3371 3.34414 11.2784 3.46691 11.2444C3.58967 11.2105 3.71807 11.2018 3.84428 11.2191C3.97048 11.2364 4.09184 11.2792 4.20094 11.345C4.31005 11.4107 4.4046 11.498 4.47885 11.6016C6.42416 14.0086 9.82728 16.875 14.9999 16.875C20.1726 16.875 23.5757 14.0051 25.521 11.6016C25.5944 11.4959 25.6888 11.4065 25.7982 11.3389C25.9076 11.2713 26.0298 11.227 26.1571 11.2086C26.2844 11.1902 26.4141 11.1983 26.5382 11.2322C26.6623 11.2661 26.778 11.3252 26.8783 11.4058C26.9785 11.4864 27.0611 11.5868 27.1209 11.7006C27.1807 11.8145 27.2165 11.9395 27.2259 12.0678C27.2353 12.196 27.2183 12.3249 27.1758 12.4463C27.1333 12.5677 27.0662 12.679 26.9788 12.7734C26.2974 13.6215 25.5404 14.4059 24.7171 15.1172L27.0609 19.2187C27.1238 19.3257 27.1649 19.444 27.1817 19.5669C27.1986 19.6898 27.1908 19.8148 27.159 19.9347C27.1272 20.0546 27.0719 20.167 26.9963 20.2654C26.9207 20.3638 26.8263 20.4462 26.7187 20.5078Z" fill="#C4C4C4"/>
</g>
</svg>
